<svg id="Layer_1" data-name="Layer 1" xmlns="http://www.w3.org/2000/svg" viewBox="0 0 85.4 84.96"><defs><style>.cls-1{fill:#6874ff;}.cls-2{fill:#fff;}</style></defs><path class="cls-1" d="M27.68,41.6c0-12.43-.21-24.86.11-37.29C27.9-.13,26-.36,22.65.25A27.67,27.67,0,0,0,.1,26.86c-.2,18,0,35.91-.1,53.87,0,2.49.57,3.55,3.3,3.49,7.05-.16,14.12-.18,21.17,0,2.78.07,3.27-1,3.25-3.49C27.63,67.69,27.68,54.65,27.68,41.6Z"/><path class="cls-1" d="M54.89,0A30.17,30.17,0,0,1,83.2,19.14a30.92,30.92,0,0,1-7.13,33.54c-1.81,1.8-2.8,2-4.69.06Q52.14,33.22,32.62,14c-1.83-1.81-1.88-2.8,0-4.65A30.92,30.92,0,0,1,54.89,0Z"/><path class="cls-2" d="M54.14,77.35C46.87,75,39.63,72.42,32.3,70.2c-2.8-.85-3.7-1.88-2.62-4.84,2.35-6.48,4.45-13,6.5-19.63.7-2.23,1.64-2.88,4-2.07,8,2.79,16.07,5.14,23.94,8.13,11.52,4.37,18.72,18.53,16,30.45-.58,2.49-1.53,3.27-4.12,2.36C68.72,82.06,61.42,79.75,54.14,77.35Z"/></svg>