<svg id="Layer_1" data-name="Layer 1" xmlns="http://www.w3.org/2000/svg" viewBox="0 0 409.22 84.96"><defs><style>.cls-1{fill:#6874ff;}.cls-2{fill:#fff;}</style></defs><path class="cls-1" d="M27.68,41.6c0-12.43-.21-24.86.11-37.29C27.9-.13,26-.36,22.65.25A27.67,27.67,0,0,0,.1,26.86c-.2,18,0,35.91-.1,53.87,0,2.49.57,3.55,3.3,3.49,7.05-.16,14.12-.18,21.17,0,2.78.07,3.27-1,3.25-3.49C27.63,67.69,27.68,54.65,27.68,41.6Z"/><path class="cls-1" d="M54.89,0A30.17,30.17,0,0,1,83.2,19.14a30.92,30.92,0,0,1-7.13,33.54c-1.81,1.8-2.8,2-4.69.06Q52.14,33.22,32.62,14c-1.83-1.81-1.88-2.8,0-4.65A30.92,30.92,0,0,1,54.89,0Z"/><path class="cls-2" d="M54.14,77.35C46.87,75,39.63,72.42,32.3,70.2c-2.8-.85-3.7-1.88-2.62-4.84,2.35-6.48,4.45-13,6.5-19.63.7-2.23,1.64-2.88,4-2.07,8,2.79,16.07,5.14,23.94,8.13,11.52,4.37,18.72,18.53,16,30.45-.58,2.49-1.53,3.27-4.12,2.36C68.72,82.06,61.42,79.75,54.14,77.35Z"/><path class="cls-2" d="M135.19,49.67h-8.7v19.4H115.57v-53h19.69q9.39,0,14.49,4.18t5.1,11.83a16.34,16.34,0,0,1-2.35,9.05,16,16,0,0,1-7.12,5.77l11.47,21.66v.51H145.13Zm-8.7-8.85h8.81a9,9,0,0,0,6.37-2.09A7.47,7.47,0,0,0,143.93,33a8,8,0,0,0-2.13-5.9q-2.13-2.14-6.54-2.15h-8.77Z"/><path class="cls-2" d="M203.26,16.07V51q0,8.7-5.44,13.76T183,69.8q-9.28,0-14.74-4.92t-5.57-13.5V16.07h10.92v35q0,5.21,2.49,7.59A9.56,9.56,0,0,0,183,61q9.21,0,9.35-9.68V16.07Z"/><path class="cls-2" d="M255.31,69.07H244.39L223.14,34.2V69.07H212.22v-53h10.92L244.43,51V16.07h10.88Z"/><path class="cls-2" d="M295.43,58.15H276.28l-3.64,10.92H261l19.73-53h10.12l19.84,53H299.1Zm-16.2-8.85h13.25l-6.66-19.84Z"/><path class="cls-2" d="M356.83,62.37a19,19,0,0,1-8.33,5.48,34.86,34.86,0,0,1-11.94,2,23.68,23.68,0,0,1-12.07-3,20,20,0,0,1-8-8.71,30.73,30.73,0,0,1-2.89-13.44V41a32.48,32.48,0,0,1,2.68-13.74A19.76,19.76,0,0,1,324,18.42a22.25,22.25,0,0,1,11.82-3.08q9.42,0,14.74,4.5t6.29,13.08H346.21c-.49-3-1.56-5.25-3.23-6.66a10.27,10.27,0,0,0-6.86-2.11,9.69,9.69,0,0,0-8.48,4.19q-2.91,4.18-2.95,12.45v3.38q0,8.34,3.17,12.59T337.14,61c4.1,0,7-.87,8.77-2.62V49.27H336V41.22h20.85Z"/><path class="cls-2" d="M409.22,43.77a32,32,0,0,1-2.77,13.72,20.81,20.81,0,0,1-7.92,9.1,21.85,21.85,0,0,1-11.81,3.21A22.09,22.09,0,0,1,375,66.63a21.13,21.13,0,0,1-8-9,31,31,0,0,1-2.87-13.52V41.44a31.85,31.85,0,0,1,2.82-13.78,21,21,0,0,1,8-9.13,23.33,23.33,0,0,1,23.55,0,21,21,0,0,1,8,9.13,31.76,31.76,0,0,1,2.83,13.74Zm-11.07-2.4q0-8.34-3-12.67a10.54,10.54,0,0,0-17-.05q-3,4.27-3,12.54v2.58q0,8.11,3,12.59a10.46,10.46,0,0,0,17,.17q2.94-4.32,3-12.58Z"/></svg>